<svg xmlns="http://www.w3.org/2000/svg" width="19.332" height="19.332" viewBox="0 0 19.332 19.332">
  <path id="Icon_awesome-facebook-square" data-name="Icon awesome-facebook-square" d="M17.261,2.25H2.071A2.071,2.071,0,0,0,0,4.321v15.19a2.071,2.071,0,0,0,2.071,2.071H7.994V15.01H5.275V11.916H7.994V9.558c0-2.682,1.6-4.163,4.042-4.163a16.47,16.47,0,0,1,2.4.209V8.236H13.083a1.547,1.547,0,0,0-1.744,1.671v2.009h2.968l-.475,3.094H11.338v6.573h5.923a2.071,2.071,0,0,0,2.071-2.071V4.321A2.071,2.071,0,0,0,17.261,2.25Z" transform="translate(0 -2.25)" fill="#409444"/>
</svg>
