<svg xmlns="http://www.w3.org/2000/svg" width="20.166" height="15.128" viewBox="0 0 20.166 15.128">
  <path id="Icon_ionic-logo-youtube" data-name="Icon ionic-logo-youtube" d="M20.035,7.84a3.062,3.062,0,0,0-2.915-3.2c-2.182-.1-4.408-.142-6.681-.142H9.73c-2.269,0-4.5.039-6.681.142A3.069,3.069,0,0,0,.138,7.848c-.1,1.4-.142,2.8-.138,4.207s.039,2.8.134,4.211a3.072,3.072,0,0,0,2.911,3.21c2.293.106,4.644.154,7.036.15s4.739-.039,7.036-.15a3.073,3.073,0,0,0,2.915-3.21c.095-1.406.138-2.809.134-4.215S20.129,9.247,20.035,7.84ZM8.154,15.92V8.179l5.712,3.868Z" transform="translate(0 -4.5)" fill="#409444"/>
</svg>
