<svg xmlns="http://www.w3.org/2000/svg" width="17.888" height="20.59" viewBox="0 0 17.888 20.59">
  <path id="Icon_simple-tiktok" data-name="Icon simple-tiktok" d="M11.764.017C12.887,0,14,.009,15.118,0a5.344,5.344,0,0,0,1.5,3.577,6.05,6.05,0,0,0,3.638,1.536V8.571a9.183,9.183,0,0,1-3.6-.832,10.6,10.6,0,0,1-1.39-.8c-.009,2.505.009,5.01-.017,7.507a6.553,6.553,0,0,1-1.158,3.38,6.392,6.392,0,0,1-5.07,2.754,6.256,6.256,0,0,1-3.5-.884,6.469,6.469,0,0,1-3.131-4.9c-.017-.429-.026-.858-.009-1.278A6.459,6.459,0,0,1,9.868,7.79c.017,1.27-.034,2.539-.034,3.809a2.944,2.944,0,0,0-3.758,1.819,3.4,3.4,0,0,0-.12,1.381,2.92,2.92,0,0,0,3,2.462,2.882,2.882,0,0,0,2.376-1.381,1.979,1.979,0,0,0,.352-.909c.086-1.536.051-3.063.06-4.6.009-3.457-.009-6.906.017-10.355Z" transform="translate(-2.369)" fill="#409444"/>
</svg>
