<svg xmlns="http://www.w3.org/2000/svg" width="20.166" height="20.166" viewBox="0 0 20.166 20.166">
  <path id="Icon_awesome-linkedin" data-name="Icon awesome-linkedin" d="M18.726,2.25H1.436A1.447,1.447,0,0,0,0,3.7V20.962a1.447,1.447,0,0,0,1.436,1.454h17.29a1.45,1.45,0,0,0,1.44-1.454V3.7A1.45,1.45,0,0,0,18.726,2.25ZM6.095,19.535H3.106V9.911H6.1v9.624ZM4.6,8.6A1.733,1.733,0,1,1,6.333,6.864,1.734,1.734,0,0,1,4.6,8.6ZM17.3,19.535H14.31V14.854c0-1.116-.023-2.552-1.553-2.552-1.557,0-1.8,1.215-1.8,2.471v4.762H7.972V9.911h2.867v1.314h.041a3.148,3.148,0,0,1,2.831-1.553c3.025,0,3.588,1.994,3.588,4.587Z" transform="translate(0 -2.25)" fill="#409444"/>
</svg>
