<svg xmlns="http://www.w3.org/2000/svg" width="20.166" height="20.166" viewBox="0 0 20.166 20.166">
  <path id="Icon_awesome-pinterest-square" data-name="Icon awesome-pinterest-square" d="M20.166,4.411V20.256a2.161,2.161,0,0,1-2.161,2.161H6.95a11.534,11.534,0,0,0,1.233-2.669c.135-.518.689-2.629.689-2.629a2.955,2.955,0,0,0,2.534,1.269c3.336,0,5.735-3.065,5.735-6.874a6.487,6.487,0,0,0-6.815-6.383c-4.771,0-7.3,3.2-7.3,6.689,0,1.62.864,3.637,2.242,4.281.212.1.32.054.369-.149.036-.153.225-.9.306-1.251a.326.326,0,0,0-.077-.315,4.309,4.309,0,0,1-.824-2.521,4.785,4.785,0,0,1,4.992-4.8,4.365,4.365,0,0,1,4.618,4.5c0,2.989-1.508,5.06-3.475,5.06a1.608,1.608,0,0,1-1.639-2,22.337,22.337,0,0,0,.914-3.682c0-2.386-3.4-2.057-3.4,1.125a4.039,4.039,0,0,0,.329,1.643c-1.413,5.978-1.625,6.054-1.332,8.67l.1.036H2.161A2.161,2.161,0,0,1,0,20.256V4.411A2.161,2.161,0,0,1,2.161,2.25H18.006A2.161,2.161,0,0,1,20.166,4.411Z" transform="translate(0 -2.25)" fill="#409444"/>
</svg>
