<?xml version="1.0" encoding="UTF-8"?>
<svg id="Group_1420" data-name="Group 1420" xmlns="http://www.w3.org/2000/svg" version="1.1" viewBox="0 0 200 119">
  <defs>
    <style>
      .cls-1 {
        fill: none;
      }

      .cls-1, .cls-2, .cls-3 {
        stroke-width: 0px;
      }

      .cls-2 {
        fill: #d1d1d1;
      }

      .cls-3 {
        fill: #fff;
      }
    </style>
  </defs>
  <path class="cls-1" d="M98.2,90h-5.5q0,0,0,0v-9.4h-.1q0-.2,0-.2h-2q0,0,0,.2v11.2h0q0,.2,0,.2h7.8q0,0,0-.2v-1.5h0q0-.2-.1-.2Z"/>
  <path class="cls-1" d="M92.7,69c.3-.5.5-1.2.5-1.8,0-.7-.2-1.3-.5-1.9-.3-.5-.8-1-1.3-1.3-.6-.3-1.2-.4-1.9-.4h-4.8q0,0,0,.2v11.2h0q0,.2.1.2h2q0,0,0-.2v-4.3c.8,0,1.7,0,2.5,0,.7,0,1.4-.1,2-.4.5-.3,1-.7,1.3-1.2ZM90.8,67.5c0,.9-.8,1.5-1.7,1.4h-2.1q0,0,0-.1v-3.1h2.1s0,0,0,0c.9,0,1.7.8,1.7,1.7,0,0,0,0,0,.1Z"/>
  <path class="cls-1" d="M112.1,80.3h-1.9c-.1,0-.2,0-.2.2l-1.5,6.8-1.7-6.8c0-.1,0-.2-.2-.2h-2c-.1,0-.2,0-.2.2l-1.5,6.8h0c0,0,0,0,0,0l-1.6-6.8c0-.1,0-.2-.2-.2h-2c0,0-.2,0-.2,0h0c0,0,2.9,11.4,2.9,11.4,0,.1,0,.2.2.2h1.8c.1,0,.2,0,.2-.2l1.6-7.2,1.7,7.2c0,.1,0,.2.2.2h2c.1,0,.2,0,.2-.2l2.7-11.3c0,0,0-.2-.2-.2Z"/>
  <path class="cls-1" d="M110.4,64c-1.5-.7-3.1-.7-4.6,0-.6.4-1.1.9-1.5,1.5-.3.7-.5,1.4-.5,2.2v3.5c0,.8.1,1.5.5,2.2.3.7.8,1.2,1.5,1.5,1.5.7,3.1.7,4.6,0,.6-.4,1.1-.9,1.5-1.5.3-.7.5-1.4.5-2.2v-3.5c0-.8-.1-1.5-.5-2.2-.3-.7-.8-1.2-1.5-1.5ZM110.2,71.2h0c0,1.2-.9,2.1-2.1,2.1-1.2,0-2.1-.9-2.1-2.1v-3.6s0,0,0,0c0-1.1,1-2,2.1-2,.6,0,1.1.2,1.5.7.4.4.6.9.6,1.5v3.5Z"/>
  <path class="cls-1" d="M85,80.1h-2.6c-.1,0-.2,0-.2.2l-3.6,11.3v.2q0,.1,0,.1h2.1c.1,0,.2,0,.2-.2l.5-1.6c0,0,0-.1.1-.1h4.1c0,0,.1,0,.1.1l.5,1.6c0,.1,0,.2.2.2h2.1q.2,0,.2-.2h0c0,0-3.6-11.4-3.6-11.4,0-.1,0-.2-.2-.2ZM85.1,88.2h-2.9q0,0,0,0l1.6-4.9,1.5,4.9q0,0,0,0Z"/>
  <path class="cls-1" d="M115.9,80.3h-2q0,0,0,.2v11.2h0q0,.2,0,.2h2q.1,0,.1-.2v-11.2h-.1q0-.2,0-.2Z"/>
  <path class="cls-1" d="M102.5,73.2h-5.5v-9.4c0,0-.2-.1-.2-.1q0,0-.1,0h-2q0,0,0,.2v11.2h0q0,.2.1.2h7.8q0,0,0-.2v-1.6h0q0-.2-.1-.2Z"/>
  <path class="cls-1" d="M80.8,75.2h2c0,0,.2,0,.2,0h0c0-.1-3.2-5.7-3.2-5.7h0c0,0,3.3-5.6,3.3-5.6v-.2q-.1,0-.2,0h-2.5l-2.1,3.8c0,0-.1,0-.1,0l-2.1-3.8c0-.1-.1-.1-.2-.1h-2.1c-.1,0-.2,0-.2.1h0c0,0,3.2,5.7,3.2,5.7h0c0,.1-3.2,5.7-3.2,5.7v.2q0,0,.2,0h2.1q0,0,.2,0l2.2-3.8h0s2.3,3.8,2.3,3.8c0,0,0,0,.2,0Z"/>
  <path class="cls-1" d="M89.2,57.2c0-.2,0-.3-.2-.5.5.4,1.2.7,1.9.7-.3-1.7-.5-3.4-.4-5.1.7-4.8,3-9.3,6.7-12.5.7-.7,1.4-1.4,2.2-2,1.2-.8,2.2-1.8,3.2-2.8,1.2-1.2,2.4-2.6,3.6-4-.9,1.6-2,3-3.2,4.4-.8,1.2-1.8,2.3-3,3.2-1,.8-1.6,1.6-2.2,2-1.2,1.1-2.2,2.4-3,3.8-.8,1.1-1.4,2.3-1.8,3.6-.6,1.3-.8,2.8-.8,4.2,0,2.4.4,4.8,1.2,7.1,1.4.6,3,.6,4.4-.2,1.7-1,3.2-2.2,4.6-3.6l-2-3,3.8.8c1.2-1.7,2.2-3.4,3-5.3l-3.8-1.2,4.6-1.4c.8-2.6,1.2-5.2,1.4-7.9l-3.8.8h-.4l4.2-3c.5-4.3.1-8.7-1-12.9-.4,2.3-1.6,4.4-3.4,5.9-.6.5-1.2,1-1.9,1.4l.6-.6c-3.4,2.6-10.1,5.4-14.5,11.5-3.3,4.5-3.8,10.4-1.4,15.4.3.6.8,1,1.4,1.2Z"/>
  <path class="cls-1" d="M76.3,86c-.1,0-.1,0,0,0,.9-.5,1.4-1.4,1.4-2.4,0-2.1-1.3-3.2-3.9-3.2h-4.3q0,0,0,.2v11.2h0q0,.2.1.2h4.3c1,0,2-.2,2.9-.8.8-.5,1.2-1.5,1.1-2.4,0-1.1-.6-2.2-1.6-2.7ZM71.7,85v-2.6q0-.1.1-.1h1.9c.4,0,.8.1,1.2.4.5.6.5,1.4,0,2-.3.3-.8.4-1.2.4h-1.9q-.1,0-.1-.1ZM75.2,89.5c-.3.3-.8.4-1.2.4h-2.1q0,0,0-.1v-2.7q0-.1,0-.1h2c.5,0,.9,0,1.3.3.5.6.5,1.6,0,2.2Z"/>
  <path class="cls-1" d="M72.3,75.2q0,0,0-.1v-1.6h0q0-.2-.1-.2h-5.5q0,0,0,0v-2.7q0,0,0,0h3.6q0-.1,0-.2v-1.6h0q0-.2-.1-.2h-3.5q0,0,0-.1v-2.6q0,0,0,0h5.6q0-.1,0-.2v-1.6h0q0-.2-.1-.2h-7.8q0,0,0,.2v11.4h0q0,.1,0,0h7.9Z"/>
  <path class="cls-1" d="M120.3,74.9c0,0,0,0,.2,0h2c.1,0,.2,0,.2,0h0c0-.1-2.2-4.8-2.2-4.8,0,0,0-.1,0-.1,1.3-.4,2.2-1.6,2.2-3,0-1.2-.5-2.4-1.6-3-.6-.3-1.2-.4-1.9-.4h-4.8q0,0,0,.2v11.2h0q0,.2,0,.2h2q.1,0,.1-.2v-4.5l1.5-.3h0c0,0,2.1,4.7,2.1,4.7ZM116.7,68.6q0,0,0-.1v-2.8q0,0,0,0h2.2c0,0,.2,0,.2,0,.8,0,1.3.7,1.3,1.5,0,.4-.1.8-.4,1.1-.3.3-.7.5-1.1.4h-2.2Z"/>
  <path class="cls-1" d="M127,65.7h5.5q.1,0,.1-.2v-1.7c0,0,0-.1,0-.1q0,0-.1,0h-7.8q0,0,0,.2v11.4c0,0,0,0,0,0q0,0,.1,0h7.8q0,0,0-.2v-1.6h0q0-.2-.1-.2h-5.5q0,0,0-.1v-2.7q0,0,0,0h3.6q0,0,0-.2v-1.6h0q0-.2-.1-.2h-3.5q0,0,0,0v-2.6q0,0,0,0Z"/>
  <path class="cls-1" d="M127,80.2h-2q-.1.1-.1.2v7.1h0l-4.3-7.1c0,0-.1,0-.2,0h-2q-.1,0-.1.2v11.3h.1q0,.2,0,.2h2q.1,0,.1-.2v-7.2h0l4.3,7.2c0,.1.1.1.2.1h2q0-.1,0-.2v-11.3h0q0-.2-.1-.2Z"/>
  <path class="cls-2" d="M4,100C4,47,47,4,100,4c53,0,96,43,96,96,0,6.5-.7,12.9-1.9,19h4.1c1.2-6.2,1.8-12.5,1.8-19C200,44.8,155.2,0,100,0,44.8,0,0,44.8,0,100s.6,12.8,1.8,19h4.1c-1.2-6.1-1.9-12.5-1.9-19Z"/>
  <path class="cls-3" d="M89.1,65.7s0,0,0,0h-2.1v3.1q0,.1,0,.1h2.1c.9,0,1.6-.5,1.7-1.4,0,0,0,0,0-.1,0-.9-.8-1.7-1.7-1.7Z"/>
  <path class="cls-3" d="M108.1,65.5c-1.1,0-2.1.9-2.1,2,0,0,0,0,0,0v3.6c0,1.2.9,2.1,2.1,2.1,1.2,0,2.1-.9,2.1-2.1h0v-3.5c0-.6-.2-1.1-.6-1.5-.4-.5-.9-.7-1.5-.7Z"/>
  <path class="cls-3" d="M73.7,85.1c.4,0,.9-.1,1.2-.4.5-.6.5-1.4,0-2-.4-.3-.8-.4-1.2-.4h-1.9q-.1,0-.1.1v2.6q0,.1.1.1h1.9Z"/>
  <path class="cls-3" d="M82.1,88.1q0,0,0,0h2.9q0,0,0,0l-1.5-4.9-1.6,4.9Z"/>
  <path class="cls-3" d="M73.9,87h-2q0,0,0,.1v2.7q0,.1,0,.1h2.1c.4,0,.9-.1,1.2-.4.5-.6.5-1.6,0-2.2-.4-.2-.8-.3-1.3-.3Z"/>
  <path class="cls-3" d="M120,68.2c.3-.3.4-.7.4-1.1,0-.8-.5-1.4-1.3-1.5,0,0-.2,0-.2,0h-2.2q0,0,0,0v2.8q0,.1,0,.1h2.2c.4,0,.8,0,1.1-.4Z"/>
  <path class="cls-3" d="M194.4,100c0-52.1-42.3-94.4-94.4-94.4C47.9,5.6,5.6,47.9,5.6,100s.7,12.9,1.9,19h185c1.3-6.1,1.9-12.5,1.9-19ZM89.2,40.6c4.4-6.1,11.1-8.9,14.5-11.5l-.6.6c.7-.4,1.3-.9,1.9-1.4,1.8-1.5,3-3.6,3.4-5.9,1.1,4.2,1.5,8.6,1,12.9l-4.2,3h.4l3.8-.8c-.2,2.7-.6,5.3-1.4,7.9l-4.6,1.4,3.8,1.2c-.8,1.9-1.8,3.6-3,5.3l-3.8-.8,2,3c-1.4,1.4-2.9,2.6-4.6,3.6-1.4.8-3,.8-4.4.2-.8-2.3-1.2-4.7-1.2-7.1,0-1.4.2-2.9.8-4.2.4-1.3,1-2.5,1.8-3.6.8-1.4,1.8-2.7,3-3.8.6-.4,1.2-1.2,2.2-2,1.2-.9,2.2-2,3-3.2,1.2-1.4,2.3-2.8,3.2-4.4-1.2,1.4-2.4,2.8-3.6,4-1,1-2,2-3.2,2.8-.8.6-1.5,1.3-2.2,2-3.7,3.2-6,7.7-6.7,12.5,0,1.7,0,3.4.4,5.1-.7,0-1.4-.3-1.9-.7,0,.2.2.3.2.5-.6-.2-1.1-.6-1.4-1.2-2.4-5-1.9-10.9,1.4-15.4ZM102.7,73.4v1.6q0,.1,0,.1h-.1c0,0-7.7,0-7.7,0q-.1,0-.1,0h0v-11.3q0-.1,0-.1h.1c0,0,1.9,0,1.9,0q.1,0,.1,0h0c0,.1,0,9.5,0,9.5h5.5q.1,0,.1,0h0ZM64.4,75.3h0v-11.5q0-.1,0-.1h0c0,0,7.7,0,7.7,0q.1,0,.1,0h0v1.7q0,0,0,0h-.1c0,.1-5.5.1-5.5.1q0,0,0,0v2.6q0,.1,0,.1h3.5q.1,0,.1,0h0v1.7q0,0,0,0h-.1c0,.1-3.5.1-3.5.1q0,0,0,0v2.7q0,0,0,0h5.5q.1,0,.1.1h0v1.7q0,.1,0,.1h-.1c0,0-7.8,0-7.8,0h0ZM76.8,91.1c-.9.6-1.9.8-2.9.8h-4.3q-.1,0-.1,0h0v-11.3q0,0,0,0h.1c0,0,4.2,0,4.2,0,2.6,0,3.9,1.1,3.9,3.2,0,1-.5,1.9-1.4,2.4-.1,0-.1,0,0,0,1,.5,1.7,1.6,1.6,2.7.1.9-.3,1.9-1.1,2.4ZM78.3,71.3l-2.2,3.8q-.1,0-.2,0h-2.1q-.1,0-.2,0v-.2l3.2-5.6h0c0-.1-3.2-5.7-3.2-5.7h0c0-.2,0-.2.2-.2h2.1c0,0,.2,0,.2.1l2.1,3.8c0,0,.1,0,.1,0l2.1-3.8h2.5q0,0,.2,0v.2l-3.3,5.5h0c0,0,3.2,5.7,3.2,5.7h0c0,.2,0,.2-.2.2h-2c-.1,0-.2,0-.2,0l-2.3-3.8h0ZM88.8,91.7q0,.2-.2.2h-2.1c-.1,0-.2,0-.2-.2l-.5-1.6c0,0,0-.1-.1-.1h-4.1c0,0-.1,0-.1.1l-.5,1.6c0,.1,0,.2-.2.2h-2.1q0,0,0-.1v-.2l3.6-11.3c0-.1,0-.2.2-.2h2.6c.1,0,.2,0,.2.2l3.6,11.3h0ZM86.9,70.7v4.3q0,.1,0,.1h-.1c0,0-1.9,0-1.9,0q-.1,0-.1,0h0v-11.3q0-.1,0-.1h.1c0,0,4.7,0,4.7,0,.7,0,1.3.1,1.9.4.5.3,1,.8,1.3,1.3.3.6.5,1.2.5,1.9,0,.6-.2,1.3-.5,1.8-.3.5-.8.9-1.3,1.2-.6.3-1.3.4-2,.4-.8,0-1.7.1-2.5,0ZM98.4,91.7q0,.1,0,.1h-.1c0,0-7.7,0-7.7,0q0,0,0,0h0v-11.3q0,0,0,0h0c0,0,1.9,0,1.9,0q0,0,0,0h.1v9.5q0,0,0,0h5.5q.1,0,.1.1h0v1.6ZM109.6,91.8c0,.1,0,.2-.2.2h-2c-.1,0-.2,0-.2-.2l-1.7-7.2-1.6,7.2c0,.1,0,.2-.2.2h-1.8c-.1,0-.2,0-.2-.2l-2.9-11.3h0c0-.2,0-.2.2-.2h2c.1,0,.2,0,.2.2l1.6,6.8h0c0,0,0,0,0,0l1.5-6.8c0-.1,0-.2.2-.2h2c.1,0,.2,0,.2.2l1.7,6.8,1.5-6.8c0-.1,0-.2.2-.2h1.9c.2,0,.2,0,.2.2l-2.7,11.3ZM112.4,67.7v3.5c0,.8-.2,1.5-.5,2.2-.4.6-.9,1.1-1.5,1.5-1.5.7-3.1.7-4.6,0-.7-.3-1.2-.8-1.5-1.5-.4-.7-.5-1.4-.5-2.2v-3.5c0-.8.2-1.5.5-2.2.4-.6.9-1.1,1.5-1.5,1.5-.7,3.1-.7,4.6,0,.7.3,1.2.8,1.5,1.5.4.7.6,1.4.5,2.2ZM116.1,91.7q0,.1-.1.1h0c0,0-1.9,0-1.9,0q0,0,0,0h0v-11.3q0,0,0,0h0c0,0,1.9,0,1.9,0q0,0,0,0h.1v11.3ZM116.6,70.5v4.5q0,.1-.1.1h0c0,0-1.9,0-1.9,0q0,0,0,0h0v-11.3q0-.1,0-.1h0c0,0,4.7,0,4.7,0,.7,0,1.3.1,1.9.4,1.1.6,1.7,1.8,1.6,3,0,1.4-.9,2.6-2.2,3,0,0,0,.1,0,.1l2.2,4.7h0c0,.2,0,.2-.2.2h-2c0,0-.2,0-.2,0l-2.1-4.6h0c0,0-1.5.2-1.5.2ZM127.2,91.7q0,0,0,0h0c0,.1-1.9.1-1.9.1,0,0-.2,0-.2-.1l-4.3-7.2h0v7.2q0,.1-.1.1h0c0,0-1.9,0-1.9,0q0,0,0,0h-.1v-11.4q0,0,.1,0h0c0,0,1.9,0,1.9,0,0,0,.2,0,.2,0l4.3,7.1h0v-7.1q0,0,.1,0h0c0-.1,1.9-.1,1.9-.1q.1,0,.1.1h0v11.4ZM127,68.5h3.5q.1,0,.1.1h0v1.7q0,.1,0,.1h-.1c0,0-3.5,0-3.5,0q0,0,0,0v2.7q0,.1,0,.1h5.5q.1,0,.1,0h0v1.7q0,0,0,0h-.1c0,0-7.7,0-7.7,0q-.1,0-.1,0c0,0,0,0,0,0v-11.4q0-.1,0-.1h.1c0,0,7.7,0,7.7,0q.1,0,.1,0h0c0,.1,0,1.8,0,1.8q0,.1-.1.1h0c0,0-5.4,0-5.4,0q0,0,0,0v2.6q0,0,0,0Z"/>
  <path class="cls-3" d="M100,4C47,4,4,47,4,100s.7,12.9,1.9,19h1.6c-1.3-6.1-1.9-12.5-1.9-19C5.6,47.9,47.9,5.6,100,5.6c52.1,0,94.4,42.3,94.4,94.4,0,6.5-.7,12.9-1.9,19h1.6c1.2-6.1,1.9-12.5,1.9-19,0-53-43-96-96-96Z"/>
</svg>