<svg xmlns="http://www.w3.org/2000/svg" width="21" height="21" viewBox="0 0 21 21">
  <path id="Icon_simple-instagram" data-name="Icon simple-instagram" d="M10.5,0C7.647,0,7.291.013,6.171.063A7.742,7.742,0,0,0,3.622.551a5.142,5.142,0,0,0-1.86,1.211A5.123,5.123,0,0,0,.551,3.622,7.72,7.72,0,0,0,.063,6.171C.01,7.291,0,7.647,0,10.5s.013,3.209.063,4.329a7.747,7.747,0,0,0,.488,2.549,5.149,5.149,0,0,0,1.211,1.86,5.135,5.135,0,0,0,1.86,1.211,7.752,7.752,0,0,0,2.549.488c1.12.052,1.476.063,4.329.063s3.209-.013,4.329-.063a7.77,7.77,0,0,0,2.549-.488,5.366,5.366,0,0,0,3.071-3.071,7.747,7.747,0,0,0,.488-2.549c.052-1.12.063-1.476.063-4.329s-.013-3.209-.063-4.329a7.765,7.765,0,0,0-.488-2.549,5.153,5.153,0,0,0-1.211-1.86A5.116,5.116,0,0,0,17.377.551,7.725,7.725,0,0,0,14.829.063C13.709.011,13.352,0,10.5,0Zm0,1.89c2.8,0,3.137.014,4.244.062a5.785,5.785,0,0,1,1.949.363,3.455,3.455,0,0,1,1.993,1.992,5.8,5.8,0,0,1,.361,1.949c.05,1.108.061,1.44.061,4.244s-.013,3.137-.065,4.244a5.909,5.909,0,0,1-.368,1.949,3.334,3.334,0,0,1-.787,1.209,3.276,3.276,0,0,1-1.207.784,5.84,5.84,0,0,1-1.956.361c-1.115.05-1.443.061-4.252.061s-3.138-.013-4.252-.065a5.954,5.954,0,0,1-1.957-.368,3.252,3.252,0,0,1-1.207-.787,3.188,3.188,0,0,1-.787-1.208A5.959,5.959,0,0,1,1.9,14.725c-.039-1.1-.053-1.443-.053-4.238s.014-3.138.053-4.253a5.952,5.952,0,0,1,.367-1.955A3.113,3.113,0,0,1,3.059,3.07a3.106,3.106,0,0,1,1.207-.786,5.811,5.811,0,0,1,1.943-.368c1.116-.039,1.444-.052,4.252-.052l.039.026Zm0,3.218A5.392,5.392,0,1,0,15.892,10.5,5.391,5.391,0,0,0,10.5,5.108ZM10.5,14A3.5,3.5,0,1,1,14,10.5,3.5,3.5,0,0,1,10.5,14Zm6.865-9.1a1.26,1.26,0,1,1-1.26-1.259A1.261,1.261,0,0,1,17.365,4.9Z" fill="#409444"/>
</svg>
