<svg id="Group_1420" data-name="Group 1420" xmlns="http://www.w3.org/2000/svg" xmlns:xlink="http://www.w3.org/1999/xlink" width="200" height="200" viewBox="0 0 200 200">
  <defs>
    <clipPath id="clip-path">
      <rect id="Rectangle_195" data-name="Rectangle 195" width="200" height="200" fill="none"/>
    </clipPath>
  </defs>
  <g id="Group_1419" data-name="Group 1419" clip-path="url(#clip-path)">
    <path id="Path_2191" data-name="Path 2191" d="M100,0A100,100,0,1,0,200,100,100.036,100.036,0,0,0,100,0m0,194.4A94.4,94.4,0,1,1,194.4,100,94.446,94.446,0,0,1,100,194.4" fill="#d1d1d1"/>
    <path id="Path_2192" data-name="Path 2192" d="M89,65.7H86.9v3.1c0,.1,0,.1.1.1h2.1a1.547,1.547,0,0,0,1.7-1.5A1.711,1.711,0,0,0,89,65.7" fill="#fff"/>
    <path id="Path_2193" data-name="Path 2193" d="M108.1,65.5a2.051,2.051,0,0,0-2.1,2.1v3.6a2.1,2.1,0,1,0,4.2,0V67.7a1.887,1.887,0,0,0-.6-1.5,1.8,1.8,0,0,0-1.5-.7" fill="#fff"/>
    <path id="Path_2194" data-name="Path 2194" d="M73.7,85.1a1.594,1.594,0,0,0,1.2-.4,1.45,1.45,0,0,0,0-2,2.144,2.144,0,0,0-1.2-.4H71.8c-.1,0-.1,0-.1.1V85c0,.1,0,.1.1.1h1.9" fill="#fff"/>
    <path id="Path_2195" data-name="Path 2195" d="M83.7,83.2h0l-1.6,4.9c0,.1,0,.1.1.1h2.9c.1,0,.1,0,.1-.1Z" fill="#fff"/>
    <path id="Path_2196" data-name="Path 2196" d="M73.9,87h-2c-.1,0-.1,0-.1.1v2.7c0,.1,0,.1.1.1H74a1.594,1.594,0,0,0,1.2-.4,1.712,1.712,0,0,0,0-2.2,2.768,2.768,0,0,0-1.3-.3" fill="#fff"/>
    <path id="Path_2197" data-name="Path 2197" d="M120,68.2a1.366,1.366,0,0,0,.4-1.1,1.384,1.384,0,0,0-1.5-1.5h-2.2c-.1,0-.1,0-.1.1v2.8c0,.1,0,.1.1.1h2.2a1.19,1.19,0,0,0,1.1-.4" fill="#fff"/>
    <path id="Path_2198" data-name="Path 2198" d="M100,4a96,96,0,1,0,96,96A96.089,96.089,0,0,0,100,4M89.2,40.6c4.4-6.1,11.1-8.9,14.5-11.5l-.6.6a13.3,13.3,0,0,0,1.9-1.4,9.888,9.888,0,0,0,3.4-5.9,35.114,35.114,0,0,1,1,12.9l-4.2,3h.4l3.8-.8a34.407,34.407,0,0,1-1.4,7.9l-4.6,1.4,3.8,1.2a31.182,31.182,0,0,1-3,5.3l-3.8-.8,2,3a22.845,22.845,0,0,1-4.6,3.6,4.886,4.886,0,0,1-4.4.2,21.175,21.175,0,0,1-1.2-7.1A10.134,10.134,0,0,1,93,48a12.159,12.159,0,0,1,1.8-3.6,15.725,15.725,0,0,1,3-3.8c.6-.4,1.2-1.2,2.2-2a13,13,0,0,0,3-3.2,32.783,32.783,0,0,0,3.2-4.4c-1.2,1.4-2.4,2.8-3.6,4a21.408,21.408,0,0,1-3.2,2.8,20.886,20.886,0,0,0-2.2,2,20.357,20.357,0,0,0-6.7,12.5,21.95,21.95,0,0,0,.4,5.1,3.41,3.41,0,0,1-1.9-.7c.1.2.2.3.2.5A2.365,2.365,0,0,1,87.8,56a15,15,0,0,1,1.4-15.4M97,73.2h5.5c.1,0,.1,0,.1.1l.1.1V75c0,.1,0,.1-.1.1l-.1.1H94.8c-.1,0-.1,0-.1-.1l-.1-.1V63.8c0-.1,0-.1.1-.1l.1-.1h1.9c.1,0,.1,0,.1.1l.1.1.1,9.4h0M64.4,75.3l-.1-.1V63.8c0-.1,0-.1.1-.1l.1-.1h7.7c.1,0,.1,0,.1.1l.1.1v1.6c0,.1,0,.1-.1.1l-.1.1H66.7c-.1,0-.1,0-.1.1v2.6c0,.1,0,.1.1.1h3.5c.1,0,.1,0,.1.1l.1.1v1.6c0,.1,0,.1-.1.1l-.1.1H66.7c-.1,0-.1,0-.1.1v2.7c0,.1,0,.1.1.1h5.5c.1,0,.1,0,.1.1l.1.1v1.6c0,.1,0,.1-.1.1l-.1.1H64.4M76.8,91.1a4.985,4.985,0,0,1-2.9.8H69.6c-.1,0-.1,0-.1-.1l-.1-.1V80.5c0-.1,0-.1.1-.1l.1-.1h4.2c2.6,0,3.9,1.1,3.9,3.2a2.585,2.585,0,0,1-1.4,2.4c-.1,0-.1.1,0,.1a2.823,2.823,0,0,1,1.6,2.7,2.553,2.553,0,0,1-1.1,2.4m1.5-19.8-2.2,3.8c-.1.1-.1.1-.2.1H73.8c-.1,0-.1,0-.2-.1v-.2l3.2-5.6v-.1l-3.2-5.6v-.1c0-.1.1-.1.2-.1h2.1c.1,0,.2,0,.2.1l2.1,3.8c0,.1.1.1.1,0l2.1-3.8h2.5c.1,0,.1,0,.2.1v.2l-3.3,5.5v.1L83,75v.1c0,.1-.1.1-.2.1h-2c-.1,0-.2,0-.2-.1l-2.3-3.8h0M88.6,91.9H86.5a.215.215,0,0,1-.2-.2l-.5-1.6a.1.1,0,0,0-.1-.1H81.6a.1.1,0,0,0-.1.1L81,91.7a.215.215,0,0,1-.2.2H78.7c-.1,0-.1,0-.1-.1v-.2l3.6-11.3a.215.215,0,0,1,.2-.2H85a.215.215,0,0,1,.2.2l3.6,11.3v.1c0,.2,0,.2-.2.2M86.9,70.7h0V75c0,.1,0,.1-.1.1l-.1.1H84.8c-.1,0-.1,0-.1-.1l-.1-.1V63.8c0-.1,0-.1.1-.1l.1-.1h4.7a3.807,3.807,0,0,1,1.9.4,3.25,3.25,0,0,1,1.3,1.3,3.83,3.83,0,0,1,.5,1.9,3.453,3.453,0,0,1-.5,1.8,3.744,3.744,0,0,1-1.3,1.2,4.211,4.211,0,0,1-2,.4,20.9,20.9,0,0,1-2.5.1m11.5,21c0,.1,0,.1-.1.1l-.1.1H90.5c-.1,0-.1,0-.1-.1l-.1-.1V80.5c0-.1,0-.1.1-.1l.1-.1h1.9c.1,0,.1,0,.1.1l.1.1v9.4c0,.1,0,.1.1.1h5.5c.1,0,.1,0,.1.1l.1.1Zm11.2.1a.215.215,0,0,1-.2.2h-2a.215.215,0,0,1-.2-.2l-1.7-7.2v0l-1.6,7.2a.215.215,0,0,1-.2.2h-1.8a.215.215,0,0,1-.2-.2L98.8,80.5v-.1c0-.1.1-.1.2-.1h2a.215.215,0,0,1,.2.2l1.6,6.8v.1l.1-.1,1.5-6.8a.215.215,0,0,1,.2-.2h2a.215.215,0,0,1,.2.2l1.7,6.8v0l1.5-6.8a.215.215,0,0,1,.2-.2h1.9c.2,0,.2.1.2.2Zm2.8-20.6a5.091,5.091,0,0,1-.5,2.2,5.356,5.356,0,0,1-1.5,1.5,5.54,5.54,0,0,1-4.6,0,3.121,3.121,0,0,1-1.5-1.5,3.983,3.983,0,0,1-.5-2.2V67.7a5.45,5.45,0,0,1,.5-2.2,5.356,5.356,0,0,1,1.5-1.5,5.54,5.54,0,0,1,4.6,0,2.758,2.758,0,0,1,1.5,1.5,3.786,3.786,0,0,1,.5,2.2Zm3.7,20.5c0,.1,0,.1-.1.1l-.1.1H114c-.1,0-.1,0-.1-.1l-.1-.1V80.5c0-.1,0-.1.1-.1l.1-.1h1.9c.1,0,.1,0,.1.1l.1.1Zm.5-21.2V75c0,.1,0,.1-.1.1l-.1.1h-1.9c-.1,0-.1,0-.1-.1l-.1-.1V63.8c0-.1,0-.1.1-.1l.1-.1h4.7a4.058,4.058,0,0,1,1.9.4,3.166,3.166,0,0,1,1.6,3,3.024,3.024,0,0,1-2.2,3c-.1,0-.1.1,0,.1l2.2,4.7v.1c0,.1-.1.1-.2.1h-2c-.1,0-.2,0-.2-.1l-2.1-4.6-.1-.1-1.5.3h0m10.6,21.2c0,.1,0,.1-.1.1l-.1.1h-1.9c-.1,0-.2,0-.2-.1l-4.3-7.2h-.1v7.2c0,.1,0,.1-.1.1l-.1.1h-1.9c-.1,0-.1,0-.1-.1l-.1-.1V80.5c0-.1,0-.1.1-.1l.1-.1h1.9c.1,0,.2,0,.2.1l4.3,7.1h.1V80.4c0-.1,0-.1.1-.1l.1-.1H127c.1,0,.1,0,.1.1l.1.1Zm5.4-26.2c0,.1,0,.1-.1.1l-.1.1H127c-.1,0-.1,0-.1.1v2.6c0,.1,0,.1.1.1h3.5c.1,0,.1,0,.1.1l.1.1v1.6c0,.1,0,.1-.1.1l-.1.1H127c-.1,0-.1,0-.1.1v2.7c0,.1,0,.1.1.1h5.5c.1,0,.1,0,.1.1l.1.1v1.6c0,.1,0,.1-.1.1l-.1.1h-7.7c-.1,0-.1,0-.1-.1a.1.1,0,0,0-.1-.1V63.8c0-.1,0-.1.1-.1l.1-.1h7.7c.1,0,.1,0,.1.1l.1.1Z" fill="#fff"/>
  </g>
</svg>
